<mxfile host="65bd71144e">
    <diagram id="dMsyRXgZ32kdPU8lP9Dn" name="SIGN SPOTTING V0">
        <mxGraphModel dx="2516" dy="823" grid="0" gridSize="10" guides="1" tooltips="1" connect="1" arrows="1" fold="1" page="0" pageScale="1" pageWidth="827" pageHeight="1169" background="none" math="0" shadow="0">
            <root>
                <mxCell id="0"/>
                <mxCell id="1" parent="0"/>
                <mxCell id="133" value="" style="rounded=0;whiteSpace=wrap;html=1;fontSize=9;" parent="1" vertex="1">
                    <mxGeometry x="1225" y="270" width="185" height="189" as="geometry"/>
                </mxCell>
                <mxCell id="88" value="" style="rounded=0;whiteSpace=wrap;html=1;fontSize=9;" parent="1" vertex="1">
                    <mxGeometry x="409" y="270" width="188" height="200" as="geometry"/>
                </mxCell>
                <mxCell id="89" value="" style="rounded=0;whiteSpace=wrap;html=1;fontSize=9;" parent="1" vertex="1">
                    <mxGeometry x="597" y="269" width="202" height="201" as="geometry"/>
                </mxCell>
                <mxCell id="92" value="" style="rounded=0;whiteSpace=wrap;html=1;fontSize=9;" parent="1" vertex="1">
                    <mxGeometry x="799" y="270" width="400" height="200" as="geometry"/>
                </mxCell>
                <mxCell id="86" value="" style="rounded=0;whiteSpace=wrap;html=1;fontSize=9;" parent="1" vertex="1">
                    <mxGeometry x="103" y="270" width="306" height="200" as="geometry"/>
                </mxCell>
                <mxCell id="84" value="" style="rounded=0;whiteSpace=wrap;html=1;fontSize=9;" parent="1" vertex="1">
                    <mxGeometry x="-72" y="270" width="175" height="434" as="geometry"/>
                </mxCell>
                <mxCell id="50" style="edgeStyle=none;html=1;entryX=0;entryY=0.5;entryDx=0;entryDy=0;fontSize=8;rounded=0;" parent="1" source="3" target="21" edge="1">
                    <mxGeometry relative="1" as="geometry"/>
                </mxCell>
                <mxCell id="3" value="GEN_WINDOWS" style="rounded=0;whiteSpace=wrap;html=1;" parent="1" vertex="1">
                    <mxGeometry x="443" y="359" width="120" height="50" as="geometry"/>
                </mxCell>
                <mxCell id="51" style="html=1;fontSize=8;rounded=0;entryX=0;entryY=0.5;entryDx=0;entryDy=0;exitX=1;exitY=0.5;exitDx=0;exitDy=0;" parent="1" source="21" target="79" edge="1">
                    <mxGeometry relative="1" as="geometry">
                        <mxPoint x="1085" y="384" as="targetPoint"/>
                        <mxPoint x="1044" y="384" as="sourcePoint"/>
                    </mxGeometry>
                </mxCell>
                <mxCell id="21" value="MSG3D (10f)&lt;br&gt;ISLR MODEL" style="rounded=0;whiteSpace=wrap;html=1;" parent="1" vertex="1">
                    <mxGeometry x="649" y="359" width="120" height="50" as="geometry"/>
                </mxCell>
                <mxCell id="49" style="edgeStyle=none;html=1;entryX=0;entryY=0.5;entryDx=0;entryDy=0;fontSize=8;rounded=0;" parent="1" source="40" target="3" edge="1">
                    <mxGeometry relative="1" as="geometry"/>
                </mxCell>
                <mxCell id="131" style="edgeStyle=none;html=1;shape=link;width=-5.833333333333333;entryX=-0.002;entryY=0.45;entryDx=0;entryDy=0;entryPerimeter=0;strokeColor=#009900;" parent="1" source="40" target="115" edge="1">
                    <mxGeometry relative="1" as="geometry">
                        <mxPoint x="964" y="494" as="targetPoint"/>
                        <Array as="points">
                            <mxPoint x="327" y="494"/>
                            <mxPoint x="401" y="494"/>
                            <mxPoint x="791" y="494"/>
                            <mxPoint x="823" y="494"/>
                        </Array>
                    </mxGeometry>
                </mxCell>
                <mxCell id="40" value="GEN_FEATURES" style="rounded=0;whiteSpace=wrap;html=1;" parent="1" vertex="1">
                    <mxGeometry x="267" y="359" width="120" height="50" as="geometry"/>
                </mxCell>
                <mxCell id="59" style="edgeStyle=none;html=1;fontSize=18;" parent="1" source="45" target="57" edge="1">
                    <mxGeometry relative="1" as="geometry"/>
                </mxCell>
                <mxCell id="45" value="VIDEOS" style="rounded=0;whiteSpace=wrap;html=1;" parent="1" vertex="1">
                    <mxGeometry x="-205" y="359" width="120" height="50" as="geometry"/>
                </mxCell>
                <mxCell id="48" style="edgeStyle=none;html=1;entryX=0;entryY=0.5;entryDx=0;entryDy=0;fontSize=8;rounded=0;" parent="1" source="46" target="40" edge="1">
                    <mxGeometry relative="1" as="geometry"/>
                </mxCell>
                <mxCell id="46" value="MEDIAPIPE -&amp;nbsp;&lt;br&gt;EXTRACT_KPS" style="rounded=0;whiteSpace=wrap;html=1;" parent="1" vertex="1">
                    <mxGeometry x="125" y="359" width="120" height="50" as="geometry"/>
                </mxCell>
                <mxCell id="124" style="edgeStyle=none;html=1;" parent="1" source="57" target="46" edge="1">
                    <mxGeometry relative="1" as="geometry"/>
                </mxCell>
                <mxCell id="57" value="PREPROCESADO" style="rounded=0;whiteSpace=wrap;html=1;" parent="1" vertex="1">
                    <mxGeometry x="-40" y="359" width="120" height="50" as="geometry"/>
                </mxCell>
                <mxCell id="81" style="edgeStyle=none;html=1;entryX=-0.023;entryY=0.168;entryDx=0;entryDy=0;entryPerimeter=0;" parent="1" source="79" target="115" edge="1">
                    <mxGeometry relative="1" as="geometry">
                        <mxPoint x="1342" y="384" as="targetPoint"/>
                        <Array as="points">
                            <mxPoint x="988" y="384"/>
                            <mxPoint x="1008" y="413"/>
                        </Array>
                    </mxGeometry>
                </mxCell>
                <mxCell id="79" value="SIGN SPOTTING&lt;br&gt;Preparation" style="rounded=0;whiteSpace=wrap;html=1;" parent="1" vertex="1">
                    <mxGeometry x="843.5" y="359" width="120" height="50" as="geometry"/>
                </mxCell>
                <mxCell id="94" value="&lt;span style=&quot;font-size: 18px&quot;&gt;&lt;b&gt;A1&lt;/b&gt;&lt;/span&gt;" style="rounded=0;whiteSpace=wrap;html=1;dashed=1;fontSize=8;fillColor=#FF0080;fontColor=#ffffff;strokeColor=#2D7600;align=center;" parent="1" vertex="1">
                    <mxGeometry x="-4" y="225" width="39" height="29" as="geometry"/>
                </mxCell>
                <mxCell id="96" value="&lt;span style=&quot;font-size: 18px&quot;&gt;&lt;b&gt;A2&lt;/b&gt;&lt;/span&gt;" style="rounded=0;whiteSpace=wrap;html=1;dashed=1;fontSize=8;fillColor=#FF0080;fontColor=#ffffff;strokeColor=#2D7600;align=center;" parent="1" vertex="1">
                    <mxGeometry x="245" y="225" width="39" height="29" as="geometry"/>
                </mxCell>
                <mxCell id="97" value="&lt;span style=&quot;font-size: 18px&quot;&gt;&lt;b&gt;B1&lt;/b&gt;&lt;/span&gt;" style="rounded=0;whiteSpace=wrap;html=1;dashed=1;fontSize=8;fillColor=#FF0000;fontColor=#ffffff;strokeColor=#2D7600;align=center;" parent="1" vertex="1">
                    <mxGeometry x="477" y="225" width="39" height="29" as="geometry"/>
                </mxCell>
                <mxCell id="99" value="&lt;span style=&quot;font-size: 18px&quot;&gt;&lt;b&gt;B2&lt;/b&gt;&lt;/span&gt;" style="rounded=0;whiteSpace=wrap;html=1;dashed=1;fontSize=8;fillColor=#FF0000;fontColor=#ffffff;strokeColor=#2D7600;align=center;" parent="1" vertex="1">
                    <mxGeometry x="679" y="225" width="39" height="29" as="geometry"/>
                </mxCell>
                <mxCell id="100" value="&lt;span style=&quot;font-size: 18px&quot;&gt;&lt;b&gt;B3&lt;/b&gt;&lt;/span&gt;" style="rounded=0;whiteSpace=wrap;html=1;dashed=1;fontSize=8;fillColor=#FF0000;fontColor=#ffffff;strokeColor=#2D7600;align=center;" parent="1" vertex="1">
                    <mxGeometry x="901.5" y="225" width="39" height="29" as="geometry"/>
                </mxCell>
                <mxCell id="138" style="html=1;entryX=0.5;entryY=0;entryDx=0;entryDy=0;exitX=0.436;exitY=0;exitDx=0;exitDy=0;edgeStyle=orthogonalEdgeStyle;exitPerimeter=0;" parent="1" source="115" target="146" edge="1">
                    <mxGeometry relative="1" as="geometry">
                        <Array as="points">
                            <mxPoint x="1089" y="328"/>
                            <mxPoint x="1320" y="328"/>
                        </Array>
                    </mxGeometry>
                </mxCell>
                <mxCell id="140" style="edgeStyle=orthogonalEdgeStyle;html=1;entryX=0.5;entryY=1;entryDx=0;entryDy=0;startArrow=none;exitX=0.5;exitY=1;exitDx=0;exitDy=0;" parent="1" source="115" target="146" edge="1">
                    <mxGeometry relative="1" as="geometry">
                        <Array as="points">
                            <mxPoint x="1097" y="678"/>
                            <mxPoint x="1320" y="678"/>
                        </Array>
                    </mxGeometry>
                </mxCell>
                <mxCell id="115" value="MSG3D - FILTER&lt;br&gt;(25f)" style="rounded=0;whiteSpace=wrap;html=1;" parent="1" vertex="1">
                    <mxGeometry x="1037" y="365" width="120" height="285" as="geometry"/>
                </mxCell>
                <mxCell id="129" style="edgeStyle=none;html=1;entryX=0;entryY=0.5;entryDx=0;entryDy=0;" parent="1" source="123" target="128" edge="1">
                    <mxGeometry relative="1" as="geometry"/>
                </mxCell>
                <mxCell id="123" value="ELAN files" style="rounded=0;whiteSpace=wrap;html=1;" parent="1" vertex="1">
                    <mxGeometry x="-205" y="639" width="120" height="50" as="geometry"/>
                </mxCell>
                <mxCell id="128" value="PREPARATION GT .EAF" style="rounded=0;whiteSpace=wrap;html=1;" parent="1" vertex="1">
                    <mxGeometry x="-49" y="639" width="120" height="50" as="geometry"/>
                </mxCell>
                <mxCell id="145" value="&lt;span style=&quot;font-size: 18px&quot;&gt;&lt;b&gt;E1&lt;/b&gt;&lt;/span&gt;" style="rounded=0;whiteSpace=wrap;html=1;dashed=1;fontSize=8;fillColor=#60a917;fontColor=#ffffff;strokeColor=#2D7600;align=center;" parent="1" vertex="1">
                    <mxGeometry x="1290" y="225" width="39" height="29" as="geometry"/>
                </mxCell>
                <mxCell id="146" value="EVALUATION" style="rounded=0;whiteSpace=wrap;html=1;" parent="1" vertex="1">
                    <mxGeometry x="1260" y="374" width="120" height="273" as="geometry"/>
                </mxCell>
                <mxCell id="149" style="edgeStyle=none;html=1;shape=link;width=-5.833333333333333;exitX=0.5;exitY=1;exitDx=0;exitDy=0;entryX=-0.007;entryY=0.425;entryDx=0;entryDy=0;entryPerimeter=0;strokeColor=#009900;fillColor=#00CC00;" parent="1" source="128" target="146" edge="1">
                    <mxGeometry relative="1" as="geometry">
                        <mxPoint x="337" y="419" as="sourcePoint"/>
                        <mxPoint x="1234" y="482" as="targetPoint"/>
                        <Array as="points">
                            <mxPoint x="11" y="782"/>
                            <mxPoint x="1217" y="776"/>
                            <mxPoint x="1217" y="488"/>
                        </Array>
                    </mxGeometry>
                </mxCell>
            </root>
        </mxGraphModel>
    </diagram>
</mxfile>